#!OML:ASF F:\VICON\USERDATA\INSTALL\rory3\rory3.ASF
:FULLY-SPECIFIED
:DEGREES
111
root -2.79608 14.5647 -15.3347 -568.084 -77.2235 562.249
lowerback 19.4791 3.19654 -5.99987
upperback 2.15001 3.19318 4.80729
thorax -9.2083 1.78133 7.90703
lowerneck -12.9758 -6.48871 -4.24852
upperneck 18.7599 -8.98715 3.45036
head 8.31398 -4.29576 0.831637
rclavicle -1.14798e-014 5.48646e-014
rhumerus 51.6488 27.9762 -44.8975
rradius 57.1945
rwrist 14.528
rhand -1.69404 24.1172
rfingers 7.12502
rthumb 23.9668 -4.40684
lclavicle -1.14798e-014 5.48646e-014
lhumerus 28.8164 -10.3678 61.802
lradius 53.3089
lwrist 3.35596
lhand -13.3962 19.5695
lfingers 7.12502
lthumb 12.7113 49.1626
rfemur -5.7564 10.1931 12.2392
rtibia 45.9964
rfoot -31.7983 -3.3721
rtoes -40.1761
lfemur -37.8983 -21.9117 -9.48436
ltibia 67.2927
lfoot -23.716 -22.5249
ltoes -6.68304
112
root -2.75309 14.5648 -15.3894 -564.164 -77.445 557.952
lowerback 19.7519 3.21169 -6.79168
upperback 2.22977 3.00789 4.60047
thorax -9.26295 1.71779 8.1904
lowerneck -13.4689 -6.51057 -4.51314
upperneck 19.4132 -8.95739 3.3212
head 8.629 -4.30157 0.807755
rclavicle 1.35174e-014 1.74931e-014
rhumerus 52.1725 28.5736 -44.0433
rradius 57.7718
rwrist 14.5822
rhand -1.67432 23.973
rfingers 7.12502
rthumb 23.9857 -4.5485
lclavicle 1.35174e-014 1.74931e-014
lhumerus 27.7253 -11.034 60.8211
lradius 54.5421
lwrist 5.21919
lhand -14.452 20.3148
lfingers 7.12502
lthumb 11.6932 49.9684
rfemur -6.04573 10.1 11.42
rtibia 46.7485
rfoot -31.9634 -3.9398
rtoes -41.7374
lfemur -37.2047 -21.9535 -10.334
ltibia 66.7022
lfoot -22.4459 -23.5201
ltoes -0.865236
113
root -2.70661 14.5625 -15.4456 -559.764 -77.7844 553.3
lowerback 20.0123 3.16108 -7.39319
upperback 2.20741 2.75308 4.10895
thorax -9.38107 1.61576 8.05676
lowerneck -13.6099 -6.45857 -4.90223
upperneck 19.5132 -8.94295 3.95948
head 8.73873 -4.25597 1.0772
rclavicle -3.3197e-014 -5.04913e-014
rhumerus 52.4485 28.9713 -43.0628
rradius 58.702
rwrist 14.1633
rhand -1.91935 23.6554
rfingers 7.12502
rthumb 23.7507 -4.89681
lclavicle -3.3197e-014 -5.04913e-014
lhumerus 26.7098 -11.8213 59.8305
lradius 55.6956
lwrist 6.92285
lhand -15.6884 22.4602
lfingers 7.12502
lthumb 10.5007 52.1779
rfemur -6.53189 9.69559 10.241
rtibia 47.5734
rfoot -32.4629 -2.45532
rtoes -39.991
lfemur -36.801 -21.9727 -11.5012
ltibia 66.1047
lfoot -24.212 -21.2328
ltoes -10.2321
114
root -2.65739 14.5682 -15.4889 -562.74 -76.9032 556.702
lowerback 19.6902 2.93043 -6.19102
upperback 2.15172 2.74738 4.33722
thorax -9.22074 1.56476 7.6119
lowerneck -13.9121 -6.55749 -5.74926
upperneck 19.9686 -9.04315 4.53937
head 9.02597 -4.29858 1.37804
rclavicle -6.80837e-015 -1.74931e-014
rhumerus 53.066 29.5356 -42.0904
rradius 59.5914
rwrist 13.7105
rhand -1.50262 23.8052
rfingers 7.12502
rthumb 24.1504 -4.69453
lclavicle -6.80837e-015 -1.74931e-014
lhumerus 25.9668 -11.9896 59.8899
lradius 56.1343
lwrist 8.17975
lhand -17.0584 23.7842
lfingers 7.12502
lthumb 9.17903 53.5644
rfemur -7.50968 9.95824 11.5828
rtibia 48.007
rfoot -32.1957 -3.13746
rtoes -41.2622
lfemur -37.2024 -21.4982 -9.79908
ltibia 66.0694
lfoot -24.1876 -21.5992
ltoes -9.95261
115
root -2.61264 14.5677 -15.5483 -560.622 -76.6149 554.319
lowerback 19.8549 2.83031 -6.48804
upperback 2.2265 2.51535 4.09915
thorax -9.18588 1.45405 7.58222
lowerneck -13.848 -6.3292 -5.07067
upperneck 19.8038 -8.76991 4.09557
head 8.88768 -4.16921 1.15999
rclavicle 2.2413e-014 8.74653e-015
rhumerus 53.6452 30.0851 -41.9186
rradius 60.0024
rwrist 13.7886
rhand -1.56048 24.4691
rfingers 7.12502
rthumb 24.0949 -4.03802
lclavicle 2.2413e-014 8.74653e-015
lhumerus 25.4442 -10.4662 60.5209
lradius 55.2305
lwrist 6.47986
lhand -13.6517 21.0799
lfingers 7.12502
lthumb 12.465 50.6882
rfemur -8.06685 9.66903 11.2798
rtibia 48.8635
rfoot -32.3655 -4.04486
rtoes -43.7934
lfemur -36.579 -21.0282 -10.1288
ltibia 65.4467
lfoot -25.1624 -20.3216
ltoes -15.1515
116
root -2.56692 14.5688 -15.6015 -553.344 -77.1206 546.787
lowerback 19.9465 2.80973 -7.66907
upperback 2.26738 2.17244 3.48045
thorax -9.14409 1.32074 7.67176
lowerneck -13.64 -6.31609 -4.72294
upperneck 19.446 -8.72319 3.70665
head 8.68988 -4.16592 0.991866
rclavicle 2.70844e-014 -2.26615e-014
rhumerus 53.959 30.3191 -41.2708
rradius 60.3912
rwrist 14.3387
rhand -2.55807 24.581
rfingers 7.12502
rthumb 23.138 -4.04949
lclavicle 2.70844e-014 -2.26615e-014
lhumerus 25.3573 -10.4627 59.9515
lradius 55.0496
lwrist 5.92286
lhand -11.4293 19.2335
lfingers 7.12502
lthumb 14.6069 48.6991
rfemur -8.71403 9.38791 9.28595
rtibia 49.9086
rfoot -32.8881 -2.20086
rtoes -41.0184
lfemur -36.048 -21.6526 -11.7868
ltibia 64.5085
lfoot -23.3028 -21.3927
ltoes -9.22481
117
root -2.51413 14.563 -15.6394 -551.404 -76.9393 544.715
lowerback 20.1387 2.66831 -7.34139
upperback 2.2136 1.98983 2.89939
thorax -9.23927 1.21359 6.8745
lowerneck -12.5209 -6.19219 -2.76202
upperneck 18.2962 -8.72647 2.7087
head 7.9612 -4.15881 0.406816
rclavicle -1.95306e-014 -2.56432e-014
rhumerus 54.0355 30.5908 -41.1378
rradius 61.0241
rwrist 14.2306
rhand -2.60523 24.8452
rfingers 7.12502
rthumb 23.0928 -3.79095
lclavicle -1.95306e-014 -2.56432e-014
lhumerus 25.1113 -10.1828 59.623
lradius 54.5555
lwrist 4.7756
lhand -7.73166 15.7762
lfingers 7.12502
lthumb 18.167 44.9478
rfemur -9.35067 9.15093 8.83599
rtibia 50.654
rfoot -33.1406 -0.715149
rtoes -39.4416
lfemur -35.7526 -21.4414 -12.062
ltibia 64.0317
lfoot -23.4725 -21.2446
ltoes -11.1119
118
root -2.46429 14.5707 -15.7136 -550.535 -76.602 543.822
lowerback 20.0838 2.5632 -7.20486
upperback 2.24591 1.85053 2.54918
thorax -9.13129 1.12758 6.44075
lowerneck -12.6525 -6.17141 -2.41016
upperneck 18.4467 -8.81695 2.87251
head 8.02921 -4.16111 0.386765
rclavicle 3.50606e-014 1.55052e-014
rhumerus 54.3639 30.8449 -40.8449
rradius 61.7139
rwrist 13.8847
rhand -2.12503 24.2878
rfingers 7.12502
rthumb 23.5535 -4.28997
lclavicle 3.50606e-014 1.55052e-014
lhumerus 24.8802 -9.30545 59.6521
lradius 53.6421
lwrist 2.9449
lhand -5.56208 13.8968
lfingers 7.12502
lthumb 20.2533 42.8609
rfemur -9.95014 9.38284 8.98757
rtibia 51.255
rfoot -33.174 1.17984
rtoes -36.6475
lfemur -35.4934 -21.0519 -11.8153
ltibia 63.6051
lfoot -23.907 -20.9577
ltoes -13.0008
119
root -2.42578 14.5767 -15.755 -549.448 -76.4691 542.551
lowerback 20.0617 2.56138 -6.41384
upperback 2.33608 1.94603 1.78048
thorax -8.97918 1.11587 5.09792
lowerneck -13.1416 -6.39919 -2.30702
upperneck 19.1445 -9.46517 4.02209
head 8.42675 -4.33761 0.641251
rclavicle 1.81236e-014 4.82053e-015
rhumerus 53.4573 30.1 -41.6921
rradius 61.3845
rwrist 15.4453
rhand -3.84079 26.9955
rfingers 7.12502
rthumb 21.9068 -1.78427
lclavicle 1.81236e-014 4.82053e-015
lhumerus 25.1798 -9.00984 59.6508
lradius 52.6279
lwrist 0.463581
lhand -1.40087 8.59801
lfingers 7.12502
lthumb 24.2479 37.0848
rfemur -10.2766 9.13522 8.70846
rtibia 51.7066
rfoot -33.2379 1.24019
rtoes -36.5846
lfemur -35.2425 -21.4693 -11.8591
ltibia 63.3994
lfoot -23.2059 -21.2937
ltoes -10.2666
120
root -2.37595 14.581 -15.8049 -548.777 -76.1923 541.842
lowerback 20.0356 2.17003 -5.96231
upperback 2.44965 1.50104 1.52566
thorax -8.75783 0.868552 4.68164
lowerneck -13.8872 -6.39913 -3.68392
upperneck 19.7377 -9.43311 5.0882
head 8.88855 -4.28812 1.18363
rclavicle -1.45905e-015 -5.7896e-015
rhumerus 54.7454 30.9231 -40.4794
rradius 62.8465
rwrist 13.5866
rhand -1.98037 24.1305
rfingers 7.12502
rthumb 23.6922 -4.42936
lclavicle -1.45905e-015 -5.7896e-015
lhumerus 24.5747 -7.18586 59.9761
lradius 51.9726
lwrist -1.87957
lhand 0.753468 5.96067
lfingers 7.12502
lthumb 26.3119 34.1557
rfemur -10.7771 9.05822 8.77747
rtibia 52.143
rfoot -33.1267 0.8706
rtoes -37.4915
lfemur -35.1152 -21.2941 -11.5827
ltibia 63.1598
lfoot -23.7432 -20.9032
ltoes -12.9787
121
root -2.33245 14.5826 -15.8583 -548.026 -75.9068 540.931
lowerback 20.0032 2.09115 -5.16703
upperback 2.57435 1.49257 0.757581
thorax -8.5595 0.810211 3.38427
lowerneck -14.2027 -6.51067 -3.31185
upperneck 19.9386 -9.88664 5.87738
head 9.06424 -4.38773 1.31595
rclavicle 2.78795e-014 -1.98785e-015
rhumerus 54.2841 30.5672 -40.9612
rradius 63.0827
rwrist 14.1194
rhand -2.67054 24.8479
rfingers 7.12502
rthumb 23.0301 -3.79615
lclavicle 2.78795e-014 -1.98785e-015
lhumerus 24.532 -12.783 56.3604
lradius 55.5526
lwrist 9.62431
lhand -12.2503 19.74
lfingers 7.12502
lthumb 13.8158 49.2612
rfemur -11.101 9.15305 8.8057
rtibia 52.5624
rfoot -33.1108 0.769279
rtoes -37.8606
lfemur -34.7264 -21.0691 -11.5518
ltibia 62.7791
lfoot -24.2422 -20.2881
ltoes -15.8832
